<?xml version="1.0" standalone="no"?>
<!DOCTYPE svg PUBLIC "-//W3C//DTD SVG 20010904//EN"
 "http://www.w3.org/TR/2001/REC-SVG-20010904/DTD/svg10.dtd">
<svg version="1.0" xmlns="http://www.w3.org/2000/svg"
 width="100.000000pt" height="100.000000pt" viewBox="0 0 100.000000 100.000000"
 preserveAspectRatio="xMidYMid meet">
<metadata>
Created by potrace 1.12, written by Peter Selinger 2001-2015
</metadata>
<g transform="translate(0.000000,100.000000) scale(0.100000,-0.100000)"
fill="#000000" stroke="none">
<path d="M278 727 c-119 -56 -219 -105 -222 -108 -3 -3 98 -54 225 -112 l230
-107 85 39 c46 22 84 44 84 50 0 18 -26 13 -100 -20 l-70 -32 -190 89 c-105
48 -187 91 -183 95 5 4 90 45 191 92 l183 85 182 -85 c100 -47 185 -88 190
-92 4 -4 -20 -20 -53 -36 -53 -25 -80 -55 -49 -55 22 0 189 84 182 91 -13 13
-442 209 -455 208 -7 0 -111 -46 -230 -102z"/>
<path d="M520 607 c0 -7 41 -30 90 -51 50 -22 94 -44 99 -50 12 -15 7 -85 -9
-118 -10 -22 -10 -33 0 -58 24 -58 79 -22 65 44 -3 17 -10 60 -13 95 l-7 65
-99 43 c-105 46 -126 51 -126 30z"/>
<path d="M217 494 c-4 -4 -7 -54 -7 -110 0 -100 1 -104 30 -137 16 -19 54 -45
82 -58 48 -22 67 -24 193 -24 126 0 145 2 193 24 29 13 64 37 77 53 23 28 25
37 25 144 0 95 -3 114 -15 114 -12 0 -15 -18 -15 -104 0 -122 -9 -140 -92
-177 -46 -20 -69 -23 -173 -23 -104 0 -127 3 -172 23 -85 38 -92 50 -95 170
-3 96 -11 125 -31 105z"/>
</g>
</svg>
